<?xml version="1.0" encoding="utf-8"?>
<!-- Generator: Adobe Illustrator 28.3.0, SVG Export Plug-In . SVG Version: 6.00 Build 0)  -->
<svg version="1.1" id="Capa_1" xmlns="http://www.w3.org/2000/svg" xmlns:xlink="http://www.w3.org/1999/xlink" x="0px" y="0px"
	 viewBox="0 0 500 500" style="enable-background:new 0 0 500 500;" xml:space="preserve">
<style type="text/css">
	.st0{fill:url(#SVGID_1_);}
</style>
<linearGradient id="SVGID_1_" gradientUnits="userSpaceOnUse" x1="3.5" y1="233.975" x2="496.5" y2="233.975">
	<stop  offset="0" style="stop-color:#D4B256"/>
	<stop  offset="0" style="stop-color:#D4B256"/>
	<stop  offset="9.030595e-02" style="stop-color:#D3A042"/>
	<stop  offset="0.1764" style="stop-color:#E9D06C"/>
	<stop  offset="0.2603" style="stop-color:#C2811B"/>
	<stop  offset="0.3381" style="stop-color:#E4C45A"/>
	<stop  offset="0.4149" style="stop-color:#D6A93A"/>
	<stop  offset="0.4973" style="stop-color:#BD891C"/>
	<stop  offset="0.5848" style="stop-color:#E0B647"/>
	<stop  offset="0.6736" style="stop-color:#D8A83B"/>
	<stop  offset="0.7531" style="stop-color:#E9C65C"/>
	<stop  offset="0.8466" style="stop-color:#A87713"/>
	<stop  offset="0.9306" style="stop-color:#E3B749"/>
	<stop  offset="1" style="stop-color:#E9C252"/>
</linearGradient>
<path class="st0" d="M385.6,422H279.8c-6.9,0-6.9-8.4,0-9.8c12.8-2.5,24.6-3.9,24.6-20.2v-29.4H361V392c0,16.2,11.8,17.7,24.6,20.2
	C392.5,413.6,392.5,422,385.6,422z M303.8,91.2l-93.9,252.6L89.9,77.6H12.6c-6.9,0-6.9,8.4,0,9.8c7.7,1.5,16,7.5,24.6,16.9v227.6H47
	V116.3c53.7,71.9,117,254.9,138.8,303.2c1.5,3.4,4.9,3.4,6.4,0L303.8,119V91.2z M43.3,340.4L43.3,340.4c0,21.9-17.9,39.8-39.8,39.8
	l0,0c21.9,0,39.8,17.9,39.8,39.8l0,0c0-21.9,17.9-39.8,39.8-39.8l0,0C61.2,380.2,43.3,362.3,43.3,340.4z M346.6,125.5L346.6,125.5
	c0-21.9,17.9-39.8,39.8-39.8l0,0c-21.9,0-39.8-17.9-39.8-39.8l0,0c0,21.9-17.9,39.8-39.8,39.8l0,0
	C328.7,85.7,346.6,103.6,346.6,125.5z M336.9,199.9v0.6h14.9v-0.6c-3.4,0-4.2-2-4.2-6.3v-38.5c0-3.5,0.4-5.6,3.4-5.6v-0.6h-13.5v0.6
	c3.1,0,3.4,2.3,3.4,5.8v39.1C341,197.2,340.4,199.9,336.9,199.9z M301.6,154.5v39.1c0,4.4-0.4,6.3-4.1,6.3v0.6h9.2v-0.6
	c-3.7,0-4.1-1.2-4.1-6.3l0.1-37.3l25.9,44.2h2v-44.7c0-4.4,0.4-6.3,4.1-6.3v-0.6h-9.2v0.6c3.7,0,4.1,1.2,4.1,6.3l-0.1,32.9
	l-23.4-39.9h-7.9L301.6,154.5z M353.8,174.5c0,15.9,11.3,26.1,23.6,26.1c8.1,0,9.4-5.7,14.9-0.8v-12.7c0-4.7,0.6-6.9,4.1-6.9v-0.6
	h-14.9v0.6c3.5,0,4.1,2.2,4.1,7.2v3.6c0,5.2-1.5,9-7.5,9c-10.5,0-16-12.1-16-24.7c0-13.4,4.7-25.7,16-25.7c9.6,0,5.6,11.5,10.1,11.5
	c2.9,0,5.2-4.4,1.6-7.5c-4.7-4-7.8-5-12.2-5C364.3,148.5,353.8,159.4,353.8,174.5z M457.4,149.5h0.3V193c0,4.7-0.6,6.9-4.1,6.9v0.6
	h14.8v-0.6c-3.4,0-4.1-2-4.1-6.3v-44.1h0.2c8.8,0,11.7,2.9,16.1,10.9c0.2,0,0.3-0.1,0.4-0.2l-1.8-11.2v-0.2h-36.7
	c0,0.2-0.4,2.1-1.8,11.4c0,0,0.3,0.2,0.4,0.2C445.6,152.3,448.8,149.5,457.4,149.5z M412.1,199.9c-3.4,0-4.2-2-4.2-6.3v-20h20.9
	v20.8c0,2.9-0.6,5.5-4.1,5.5v0.6h14.9v-0.6c-3.4,0-4.1-2-4.1-6.3v-38.5c0-3.5,0.4-5.6,3.4-5.6v-0.6h-13.5v0.6c3.1,0,3.4,2.3,3.4,5.8
	v17.2h-20.9v-17.3c0-3.5,0.4-5.6,3.4-5.6V149h-13.5v0.6c3.1,0,3.4,2.3,3.4,5.8v39.1c0,2.9-0.6,5.5-4.1,5.5v0.6H412v-0.7H412.1z
	 M375.6,217.8h-9.2v0.6c3.7,0,4.1,1.2,4.1,6.3l-0.1,32.9L347,217.7h-7.9l3.4,5.7v39.1c0,4.4-0.4,6.3-4.1,6.3v0.6h9.2v-0.6
	c-3.7,0-4.1-1.2-4.1-6.3l0.1-37.3l25.9,44.2h2v-44.7c0-4.4,0.4-6.3,4.1-6.3V217.8z M332.7,224.2c0-3.5,0.4-5.8,3.4-5.8v-0.6h-7.9
	v0.6c3.1,0,3.4,2.3,3.4,5.8v29c0,8.8-5.5,14.7-12.7,14.7s-12.3-5.7-12.3-14.2v-29.6c0-3.5,0.4-5.8,3.4-5.8v-0.6h-13.5v0.6
	c3.1,0,3.4,2.3,3.4,5.8v29.6c0,11.1,9.3,15.7,17.1,15.7c5.5,0,15.6-1.9,15.6-16.8v-28.4H332.7z M381.9,261.9v-37.7
	c0-3.5-0.4-5.8-3.4-5.8v-0.6h17.1c27.7,0,27.2,51.7,0,51.7h-17.8v-0.6C381.4,268.8,381.9,266.6,381.9,261.9z M388.6,268.2h5
	c21.4,0,22.5-49.3-0.7-49.3h-4.3V268.2z M434.2,219c9.8,0,13.8,2,18.9,10.3l0.4-0.2l-1.8-11.2v-0.2H419v0.6c3.1,0,3.4,2.3,3.4,5.8
	v37.7c0,4.7-0.6,6.9-4.1,6.9v0.6h33.4l1.8-12.1l-0.4-0.1c-5.3,9.1-10.7,11-20.2,11h-3.8V242h0.5c7.8,0,10,2.3,12.5,8.3h0.3v-17.2
	h-0.3c-1.7,6.3-4.7,8-12.5,8h-0.5V219H434.2z M496.5,268.8v0.6H487c-5-4.3-9.5-24.7-14.9-25H467v19.2c0,1.1,0.1,2.8,0.7,3.7
	c0.6,1.2,1.6,1.5,2.8,1.5v0.6c-2.4-0.2-4.8-0.3-7.2-0.3c-1.2,0-2.3,0-3.4,0.1s-2.1,0.2-3,0.2v-0.6c1.2,0,2.2-0.3,2.9-1.6
	c0.6-1,0.6-3,0.6-4.2v-37.7c0-3.6-0.1-6.9-4.1-6.9v-0.6h21.3c18.3,0,19.9,23.8,3.2,26.4C488.6,248,488.8,264.6,496.5,268.8z
	 M475.2,243.3c14.7,0,12.8-24.3,0-24.3H467v24.3h3l0,0l0,0H475.2z M450.1,340.9v0.6h-9.5c-5-4.3-9.5-24.7-14.9-25h-5.2v19.2
	c0,1.1,0.1,2.8,0.7,3.7c0.6,1.2,1.6,1.5,2.8,1.5v0.6c-2.4-0.2-4.8-0.3-7.2-0.3c-1.2,0-2.3,0-3.4,0.1s-2.1,0.2-3,0.2v-0.6
	c1.2,0,2.2-0.3,2.9-1.6c0.6-1,0.6-3,0.6-4.2v-37.7c0-3.6-0.1-6.9-4.1-6.9v-0.6h21.3c18.3,0,19.9,23.8,3.2,26.4
	C442.2,320,442.5,336.7,450.1,340.9z M428.9,315.3c14.7,0,12.8-24.3,0-24.3h-8.2v24.3h3l0,0l0,0H428.9z M356.6,290.5
	c8.8,0,11.7,2.9,16.1,10.9c0.2,0,0.3-0.1,0.4-0.2l-1.8-11.2v-0.2h-36.7c0,0.2-0.4,2.1-1.8,11.4c0,0,0.3,0.2,0.4,0.2
	c4.3-8,7.5-10.9,16.1-10.9h0.3V334c0,4.7-0.6,6.9-4.1,6.9v0.6h14.8v-0.6c-3.4,0-4.1-2-4.1-6.3v-44.1L356.6,290.5L356.6,290.5z
	 M457.7,301.1c0-5.7,3.4-10.3,9.5-10.3c11.5,0,8.2,11.1,12.8,11.1c2.9,0,5.2-4.4,1.6-7.5c-4.7-4-9.9-5-14.3-5
	c-6.7,0-15.4,4-15.4,13.9c0,18.6,28.3,13.3,28.3,27.5c0,7.5-4.6,9.6-9.9,9.6c-11.5,0-9.8-11.2-14.4-11.2c-2.2,0-5.2,4.4-1.6,7.5
	c4.7,4,10.2,4.6,15,4.6c8.9,0,16.9-3.9,16.9-13.5C486.2,309.6,457.7,314.5,457.7,301.1z M315.4,340.5c-11.5,0-9.8-11.2-14.4-11.2
	c-2.2,0-5.2,4.4-1.6,7.5c4.7,4,10.2,4.6,15,4.6c8.9,0,16.9-3.9,16.9-13.5c0-18.4-28.5-13.5-28.5-26.9c0-5.7,3.4-10.3,9.5-10.3
	c11.5,0,8.2,11.1,12.8,11.1c2.9,0,5.2-4.4,1.6-7.5c-4.7-4-9.9-5-14.3-5c-6.7,0-15.4,4-15.4,13.9c0,18.6,28.3,13.3,28.3,27.5
	C325.3,338.4,320.7,340.5,315.4,340.5z M409.2,340.9v0.6h-14.3v-0.6c3.1-0.1,2.9-3.8,1.8-6.7l-2.3-6.1h-19.7l-2.1,6.1
	c-1,3-1.4,6.7,1.8,6.7v0.6H366v-0.6c2-0.2,4.1-3.2,5.1-6.1l15.2-44.9h1.1l16.6,44.9C405.2,337.6,407.2,340.7,409.2,340.9z
	 M394,326.8l-9.8-26.5l-9,26.5H394z"/>
</svg>
